<?xml version="1.0" encoding="UTF-8" standalone="no"?>
<!-- Created with Inkscape (http://www.inkscape.org/) -->

<svg
   width="400"
   height="140"
   viewBox="0 0 105.83333 37.041666"
   version="1.1"
   id="svg5"
   xmlns="http://www.w3.org/2000/svg"
   xmlns:svg="http://www.w3.org/2000/svg">
  <defs
     id="defs2" />
  <g
     id="layer1">
    <path
       id="path586"
       style="fill:#006680;stroke:none;stroke-width:0.127141"
       d="m 52.12114,4.9200437 c -0.162635,7.703e-4 -0.323374,0.039797 -0.436755,0.1145335 l 2e-6,1.0108199 c -0.04709,4.5e-6 -0.16911,0.015872 -0.236749,0.054696 -0.0045,0.06465 -0.0086,0.1293309 -0.01282,0.1940172 0.46152,-0.040943 0.923089,-0.048124 1.38461,-0.00145 -0.0043,-0.064205 -0.0087,-0.1284182 -0.01311,-0.1925946 -0.07733,-0.048478 -0.181586,-0.054696 -0.236754,-0.054696 l 2e-6,-1.0108253 C 52.448337,4.9567219 52.283771,4.9192747 52.12114,4.9200437 Z m 0.01823,1.3891711 c -0.234117,6.427e-4 -0.470019,0.010381 -0.707406,0.027353 -0.0015,0.025062 -0.0032,0.050124 -0.0048,0.075204 -0.06803,-0.00464 -0.135987,-0.004 -0.203986,0.010254 -0.862205,2.0160052 -0.349774,4.8466922 -0.380339,7.3555252 0.06485,-0.02103 0.130135,-0.04102 0.17407,-0.129062 0.06725,-2.170282 -0.147653,-4.62264 0.356411,-6.356102 -0.14388,2.552013 -0.188354,5.104761 -0.171795,7.574899 0.578977,-0.04685 1.271986,-0.05432 1.851275,-0.0012 0.01862,-2.778562 -0.04007,-5.661563 -0.230481,-8.5304485 -0.225707,-0.01859 -0.453359,-0.027125 -0.682906,-0.026489 z m -0.0046,8.5834372 c -0.319363,7.71e-4 -0.639313,0.01198 -0.933049,0.03106 0.02017,2.84588 0.121201,5.581141 0.245018,8.077741 0.427362,-0.03344 0.93271,-0.03881 1.36068,-0.0014 0.12379,-2.496417 0.224855,-5.231541 0.24501,-8.077173 -0.28493,-0.02115 -0.599347,-0.03097 -0.917658,-0.0302 z m -2.87e-4,8.129599 c -0.177507,4.31e-4 -0.355035,0.0056 -0.52535,0.01367 -0.02714,0.391603 -0.155127,0.724194 -0.302278,1.045578 0.201408,0.798518 0.421046,1.098132 0.711675,2.246148 -0.08666,10e-6 -0.07729,0.181193 0.03704,0.181192 0.04686,-1.270052 0.03379,-1.607058 0.06267,-2.273206 a 0.13376552,0.13376552 0 0 1 -0.128337,-0.132345 0.13376552,0.13376552 0 0 1 0.133905,-0.13362 0.13376552,0.13376552 0 0 1 0.133618,0.133619 0.13376552,0.13376552 0 0 1 -0.121654,0.130771 c 0.02899,0.667283 0.01578,1.003773 0.06268,2.274917 0.114325,1e-6 0.123682,-0.181194 0.03703,-0.181193 0.290626,-1.148017 0.509979,-1.44763 0.711397,-2.246148 -0.147414,-0.321935 -0.27574,-0.655093 -0.302565,-1.047573 -0.163979,-0.008 -0.33612,-0.01211 -0.509969,-0.01168 z" />
    <path
       d="m 23.331742,22.72647 q -2.874292,0 -4.478958,-1.560582 -1.604665,-1.569399 -1.604665,-4.390789 0,-3.050629 1.542948,-4.611211 1.542948,-1.569398 4.575942,-1.569398 1.842721,0 3.958764,0.449659 l 0.0529,2.583336 h -0.581912 l -0.264505,-1.534131 q -0.617179,-0.379125 -1.437146,-0.581912 -0.81115,-0.211604 -1.657567,-0.211604 -2.265929,0 -3.306317,1.331343 -1.040388,1.331344 -1.040388,4.126284 0,2.574519 1.084472,3.932313 1.093289,1.357795 3.174065,1.357795 1.00512,0 1.895622,-0.238055 0.890501,-0.246872 1.410695,-0.652447 l 0.326223,-1.763369 h 0.573095 l -0.0529,2.777306 q -1.939706,0.555462 -4.170368,0.555462 z m 9.319406,-8.649326 q 1.357794,0 1.992607,0.555461 0.643629,0.555462 0.643629,1.701652 v 5.598697 l 1.031571,0.220421 v 0.396758 h -2.274746 l -0.16752,-0.828784 q -1.00512,1.005121 -2.565702,1.005121 -2.12486,0 -2.12486,-2.468717 0,-0.828784 0.317407,-1.366611 0.326223,-0.546645 1.031571,-0.828784 0.705347,-0.290956 2.045508,-0.317406 l 1.243175,-0.03527 v -1.296076 q 0,-0.855234 -0.317406,-1.260809 -0.30859,-0.405575 -0.961037,-0.405575 -0.881684,0 -1.613482,0.414392 l -0.299773,1.031571 h -0.493743 v -1.807453 q 1.428329,-0.30859 2.512801,-0.30859 z m 1.17264,4.24972 -1.155007,0.03527 q -1.181457,0.04408 -1.604666,0.458476 -0.414391,0.414392 -0.414391,1.384245 0,1.551765 1.260809,1.551765 0.599545,0 1.031571,-0.132253 0.440842,-0.14107 0.881684,-0.352674 z m 5.686865,4.399606 q -0.846417,0 -1.269626,-0.502561 -0.414392,-0.50256 -0.414392,-1.410695 v -5.810301 h -1.084472 v -0.396758 l 1.102106,-0.343857 0.890501,-1.877988 h 0.555462 v 1.877988 h 1.895622 v 0.740615 h -1.895622 v 5.651598 q 0,0.573095 0.255688,0.864051 0.264506,0.290956 0.687714,0.290956 0.511377,0 1.243175,-0.14107 v 0.573095 q -0.308589,0.211604 -0.890501,0.343857 -0.581912,0.14107 -1.075655,0.14107 z m 6.171793,-8.649326 q 1.357794,0 1.992607,0.555461 0.64363,0.555462 0.64363,1.701652 v 5.598697 l 1.031571,0.220421 v 0.396758 h -2.274746 l -0.16752,-0.828784 q -1.005121,1.005121 -2.565702,1.005121 -2.12486,0 -2.12486,-2.468717 0,-0.828784 0.317406,-1.366611 0.326224,-0.546645 1.031571,-0.828784 0.705348,-0.290956 2.045508,-0.317406 l 1.243176,-0.03527 v -1.296076 q 0,-0.855234 -0.317407,-1.260809 -0.308589,-0.405575 -0.961036,-0.405575 -0.881684,0 -1.613483,0.414392 l -0.299772,1.031571 h -0.493744 v -1.807453 q 1.428329,-0.30859 2.512801,-0.30859 z m 1.172641,4.24972 -1.155007,0.03527 q -1.181457,0.04408 -1.604666,0.458476 -0.414392,0.414392 -0.414392,1.384245 0,1.551765 1.260809,1.551765 0.599546,0 1.031571,-0.132253 0.440842,-0.14107 0.881685,-0.352674 z m 15.597,0.03527 q 0,4.364339 -3.879412,4.364339 -1.869171,0 -2.821391,-1.11974 -0.952219,-1.119739 -0.952219,-3.244599 0,-2.098409 0.952219,-3.209332 0.95222,-1.110922 2.891926,-1.110922 1.886805,0 2.847841,1.093289 0.961036,1.084472 0.961036,3.226965 z m -1.587032,0 q 0,-1.904439 -0.555461,-2.759673 -0.555462,-0.855234 -1.736919,-0.855234 -1.155007,0 -1.675201,0.819967 -0.511377,0.819967 -0.511377,2.79494 0,2.001424 0.520194,2.839024 0.529011,0.828784 1.666384,0.828784 1.163824,0 1.728102,-0.864051 0.564278,-0.864051 0.564278,-2.803757 z m 9.945402,-1.48123 q 0,1.428329 -0.855234,2.160127 -0.855234,0.731798 -2.4599,0.731798 -0.722982,0 -1.340161,-0.132252 l -0.555461,1.155006 q 0.02645,0.149887 0.343857,0.28214 0.317406,0.132252 0.793516,0.132252 h 2.451083 q 1.340161,0 1.98379,0.581912 0.652447,0.581912 0.652447,1.604666 0,0.925769 -0.520194,1.613483 -0.511377,0.687714 -1.50768,1.058021 -0.996304,0.379125 -2.415816,0.379125 -1.692835,0 -2.583336,-0.520194 -0.881685,-0.520194 -0.881685,-1.48123 0,-0.467293 0.317407,-0.925769 0.317406,-0.449659 1.163824,-1.058022 -0.502561,-0.16752 -0.846418,-0.573095 -0.343857,-0.405575 -0.343857,-0.872867 l 1.393062,-1.569399 q -1.393062,-0.652447 -1.393062,-2.565702 0,-1.357794 0.855234,-2.098409 0.864051,-0.740615 2.503985,-0.740615 0.326223,0 0.8376,0.07053 0.511377,0.06172 0.784699,0.149887 l 1.948523,-0.97867 0.30859,0.379124 -1.225542,1.269626 q 0.590729,0.661263 0.590729,1.948523 z m -0.361491,6.788971 q 0,-0.50256 -0.308589,-0.784699 -0.30859,-0.282139 -0.934586,-0.282139 h -3.209332 q -0.370307,0.317406 -0.608362,0.802333 -0.229238,0.493743 -0.229238,0.916952 0,0.758248 0.546644,1.084472 0.546645,0.33504 1.675201,0.33504 1.472413,0 2.265929,-0.546645 0.802333,-0.546644 0.802333,-1.525314 z m -2.936009,-4.567126 q 0.961036,0 1.357794,-0.546644 0.405575,-0.555462 0.405575,-1.675201 0,-1.172641 -0.414392,-1.666384 -0.414392,-0.50256 -1.331344,-0.50256 -0.925769,0 -1.357794,0.50256 -0.432025,0.50256 -0.432025,1.666384 0,1.163824 0.423208,1.692834 0.423209,0.529011 1.348978,0.529011 z m 7.414967,1.084472 q 0,1.516498 1.410695,1.516498 1.093289,0 2.045508,-0.273323 v -6.550916 l -1.251992,-0.220421 v -0.396758 h 2.706772 v 7.670656 l 1.049204,0.220421 v 0.396758 h -2.415815 l -0.07054,-0.670081 q -0.625996,0.343857 -1.445963,0.599546 -0.819966,0.246872 -1.375428,0.246872 -2.116043,0 -2.116043,-2.43345 v -5.413543 l -1.058021,-0.220421 v -0.396758 h 2.521618 z m 8.561153,-1.807453 v 0.158703 q 0,1.216725 0.264505,1.895622 0.273323,0.67008 0.828784,1.022754 0.564278,0.352674 1.472413,0.352674 0.47611,0 1.128556,-0.07935 0.652447,-0.07935 1.075656,-0.176337 v 0.493744 q -0.423209,0.273322 -1.155007,0.476109 -0.722981,0.202788 -1.48123,0.202788 -1.930889,0 -2.830208,-1.040388 -0.890501,-1.040388 -0.890501,-3.341585 0,-2.168944 0.908135,-3.235782 0.908135,-1.066838 2.592153,-1.066838 3.182881,0 3.182881,3.614906 v 0.722982 z m 1.913256,-3.632541 q -0.916952,0 -1.410696,0.740615 -0.484926,0.740615 -0.484926,2.186578 h 3.544372 q 0,-1.578215 -0.405575,-2.248296 -0.405575,-0.678897 -1.243175,-0.678897 z"
       id="text790"
       style="font-size:18.0569px;font-family:'Liberation Serif';-inkscape-font-specification:'Liberation Serif, Normal';fill:#006680;stroke-width:1.50474"
       aria-label="Cata ogue" />
  </g>
</svg>
