<?xml version="1.0" encoding="UTF-8" standalone="no"?>
<!-- Created with Inkscape (http://www.inkscape.org/) -->

<svg
   width="400"
   height="100"
   viewBox="0 0 105.83333 26.458333"
   version="1.1"
   id="svg5"
   inkscape:version="1.2.2 (b0a8486541, 2022-12-01)"
   sodipodi:docname="logo.svg"
   xmlns:inkscape="http://www.inkscape.org/namespaces/inkscape"
   xmlns:sodipodi="http://sodipodi.sourceforge.net/DTD/sodipodi-0.dtd"
   xmlns="http://www.w3.org/2000/svg"
   xmlns:svg="http://www.w3.org/2000/svg">
  <sodipodi:namedview
     id="namedview7"
     pagecolor="#ffffff"
     bordercolor="#000000"
     borderopacity="0.25"
     inkscape:showpageshadow="2"
     inkscape:pageopacity="0.0"
     inkscape:pagecheckerboard="0"
     inkscape:deskcolor="#d1d1d1"
     inkscape:document-units="mm"
     showgrid="false"
     inkscape:zoom="1"
     inkscape:cx="274.5"
     inkscape:cy="79.5"
     inkscape:window-width="1920"
     inkscape:window-height="1013"
     inkscape:window-x="0"
     inkscape:window-y="0"
     inkscape:window-maximized="1"
     inkscape:current-layer="layer1" />
  <defs
     id="defs2" />
  <g
     inkscape:label="Layer 1"
     inkscape:groupmode="layer"
     id="layer1">
    <g
       id="g118"
       transform="translate(-45.236318,-20.848813)">
      <path
         id="path586"
         style="fill:#000000;stroke:none;stroke-width:0.179453"
         d="m 144.16571,22.359251 c -0.16309,-0.161545 -0.36246,-0.283021 -0.55021,-0.321591 l -1.00884,1.008844 c -0.047,-0.04699 -0.18462,-0.152938 -0.29088,-0.181694 -0.069,0.06005 -0.13769,0.120465 -0.20643,0.180844 0.50148,0.419757 0.96931,0.873257 1.38332,1.380482 0.0598,-0.06835 0.1195,-0.136834 0.17914,-0.205295 -0.0288,-0.125561 -0.12664,-0.235824 -0.1817,-0.290882 l 1.00885,-1.008846 c -0.0433,-0.1987 -0.17017,-0.400317 -0.33325,-0.561862 z m -1.36826,1.404647 c -0.2343,-0.233018 -0.47946,-0.458738 -0.73332,-0.678725 -0.0266,0.02343 -0.0532,0.04686 -0.0799,0.07022 -0.0633,-0.07249 -0.13171,-0.139731 -0.21382,-0.193351 -2.87258,1.151541 -5.1863,4.488119 -7.72073,6.961539 0.0857,0.04374 0.17082,0.08894 0.30254,0.04492 2.23315,-2.098919 4.46623,-4.76096 6.69938,-5.987953 -2.69062,2.403422 -5.28276,4.906788 -7.73154,7.388621 0.6246,0.531088 1.32371,1.215286 1.84881,1.846496 2.79171,-2.754541 5.61049,-5.690483 8.28373,-8.74379 -0.20671,-0.243819 -0.4254,-0.479544 -0.65513,-0.708011 z m -8.57121,8.56208 c -0.31951,-0.317965 -0.65002,-0.626104 -0.96222,-0.900224 -2.82019,2.860437 -5.44926,5.691186 -7.8174,8.306475 0.45991,0.393141 0.96961,0.89216 1.35945,1.356586 2.61508,-2.367984 5.44572,-4.996891 8.3059,-7.816839 -0.26326,-0.305484 -0.56726,-0.629089 -0.88572,-0.946006 z m -8.11398,8.113407 c -0.17759,-0.176728 -0.35992,-0.348761 -0.53797,-0.510674 -0.41791,0.363766 -0.8776,0.567955 -1.34522,0.741847 -0.59594,0.99797 -0.67576,1.516206 -1.53147,2.952036 -0.0865,-0.08648 -0.25797,0.103707 -0.14387,0.217806 1.31433,-1.220805 1.63764,-1.570189 2.33131,-2.206208 a 0.18880291,0.18880291 0 0 1 0.004,-0.260172 0.18880291,0.18880291 0 0 1 0.267,2.84e-4 0.18880291,0.18880291 0 0 1 0,0.266713 0.18880291,0.18880291 0 0 1 -0.25193,0.0091 c -0.63705,0.694905 -0.98606,1.01756 -2.20791,2.333024 0.1141,0.114101 0.30428,-0.0574 0.2178,-0.143876 1.43583,-0.855713 1.95378,-0.935817 2.95176,-1.531749 0.17418,-0.46843 0.37861,-0.929011 0.74355,-1.347496 -0.15569,-0.171625 -0.32338,-0.347543 -0.49731,-0.520631 z"
         inkscape:export-filename="icon.png"
         inkscape:export-xdpi="164.41557"
         inkscape:export-ydpi="164.41557" />
      <text
         xml:space="preserve"
         style="font-size:18.0569px;fill:#ffffff;stroke:none;stroke-width:1.50474"
         x="50.218002"
         y="41.658245"
         id="text790"><tspan
           sodipodi:role="line"
           id="tspan788"
           style="font-style:normal;font-variant:normal;font-weight:normal;font-stretch:normal;font-family:Z003;-inkscape-font-specification:Z003;fill:#000000;stroke-width:1.50474"
           x="50.218002"
           y="41.658245">Catalogue</tspan></text>
      <path
         style="opacity:1;fill:#000000;stroke:none;stroke-width:0.264583"
         d="m 114.22834,39.708701 c 1.26203,-1.292932 3.69682,3.32623 7.3477,4.294814 -4.12447,-2.41639 -5.44445,-6.431665 -7.32979,-4.81831 z"
         id="path792"
         sodipodi:nodetypes="cccc" />
    </g>
  </g>
</svg>
