<?xml version="1.0" encoding="UTF-8" standalone="no"?>
<!-- Created with Inkscape (http://www.inkscape.org/) -->

<svg
   width="400"
   height="140"
   viewBox="0 0 105.83333 37.041666"
   version="1.1"
   id="svg5"
   inkscape:version="1.2.2 (b0a8486541, 2022-12-01)"
   sodipodi:docname="logo.svg"
   xmlns:inkscape="http://www.inkscape.org/namespaces/inkscape"
   xmlns:sodipodi="http://sodipodi.sourceforge.net/DTD/sodipodi-0.dtd"
   xmlns="http://www.w3.org/2000/svg"
   xmlns:svg="http://www.w3.org/2000/svg">
  <sodipodi:namedview
     id="namedview7"
     pagecolor="#ffffff"
     bordercolor="#000000"
     borderopacity="0.25"
     inkscape:showpageshadow="2"
     inkscape:pageopacity="0.0"
     inkscape:pagecheckerboard="0"
     inkscape:deskcolor="#d1d1d1"
     inkscape:document-units="mm"
     showgrid="false"
     inkscape:zoom="2.8284271"
     inkscape:cx="196.04536"
     inkscape:cy="85.383145"
     inkscape:window-width="1920"
     inkscape:window-height="1013"
     inkscape:window-x="0"
     inkscape:window-y="0"
     inkscape:window-maximized="1"
     inkscape:current-layer="layer1" />
  <defs
     id="defs2" />
  <g
     inkscape:label="Layer 1"
     inkscape:groupmode="layer"
     id="layer1">
    <path
       id="path586"
       style="fill:#006680;stroke:none;stroke-width:0.127141"
       d="m 51.239295,7.1401921 c -0.162635,7.703e-4 -0.323374,0.039797 -0.436755,0.1145335 l 2e-6,1.0108199 c -0.04709,4.5e-6 -0.16911,0.015872 -0.236749,0.054696 -0.0045,0.06465 -0.0086,0.1293309 -0.01282,0.1940172 0.46152,-0.040943 0.923089,-0.048124 1.38461,-0.00145 -0.0043,-0.064205 -0.0087,-0.1284182 -0.01311,-0.1925946 -0.07733,-0.048478 -0.181586,-0.054696 -0.236754,-0.054696 l 2e-6,-1.0108253 C 51.566492,7.1768703 51.401926,7.1394231 51.239295,7.1401921 Z m 0.01823,1.3891711 c -0.234117,6.427e-4 -0.470019,0.010381 -0.707406,0.027353 -0.0015,0.025062 -0.0032,0.050124 -0.0048,0.075204 -0.06803,-0.00464 -0.135987,-0.004 -0.203986,0.010254 -0.862205,2.0160048 -0.349774,4.8466918 -0.380339,7.3555248 0.06485,-0.02103 0.130135,-0.04102 0.17407,-0.129062 0.06725,-2.170282 -0.147653,-4.62264 0.356411,-6.3561016 -0.14388,2.5520126 -0.188354,5.1047606 -0.171795,7.5748986 0.578977,-0.04685 1.271986,-0.05432 1.851275,-0.0012 0.01862,-2.778562 -0.04007,-5.661563 -0.230481,-8.5304481 -0.225707,-0.01859 -0.453359,-0.027125 -0.682906,-0.026489 z m -0.0046,8.5834368 c -0.319363,7.71e-4 -0.639313,0.01198 -0.933049,0.03106 0.02017,2.84588 0.121201,5.581141 0.245018,8.077741 0.427362,-0.03344 0.93271,-0.03881 1.36068,-0.0014 0.12379,-2.496417 0.224855,-5.231541 0.24501,-8.077173 -0.28493,-0.02115 -0.599347,-0.03097 -0.917658,-0.0302 z m -2.87e-4,8.129599 c -0.177507,4.31e-4 -0.355035,0.0056 -0.52535,0.01367 -0.02714,0.391603 -0.155127,0.724194 -0.302278,1.045578 0.201408,0.798518 0.421046,1.098132 0.711675,2.246148 -0.08666,10e-6 -0.07729,0.181193 0.03704,0.181192 0.04686,-1.270052 0.03379,-1.607058 0.06267,-2.273206 a 0.13376552,0.13376552 0 0 1 -0.128337,-0.132345 0.13376552,0.13376552 0 0 1 0.133905,-0.13362 0.13376552,0.13376552 0 0 1 0.133618,0.133619 0.13376552,0.13376552 0 0 1 -0.121654,0.130771 c 0.02899,0.667283 0.01578,1.003773 0.06268,2.274917 0.114325,10e-7 0.123682,-0.181194 0.03703,-0.181193 0.290626,-1.148017 0.509979,-1.44763 0.711397,-2.246148 -0.147414,-0.321935 -0.27574,-0.655093 -0.302565,-1.047573 -0.163979,-0.008 -0.33612,-0.01211 -0.509969,-0.01168 z"
       inkscape:export-filename="icon.png"
       inkscape:export-xdpi="164.41557"
       inkscape:export-ydpi="164.41557" />
    <text
       xml:space="preserve"
       style="font-style:normal;font-variant:normal;font-weight:normal;font-stretch:normal;font-size:18.0569px;font-family:P052;-inkscape-font-specification:'P052, Normal';font-variant-ligatures:normal;font-variant-caps:normal;font-variant-numeric:normal;font-variant-east-asian:normal;fill:#006680;stroke:none;stroke-width:1.50474"
       x="13.128304"
       y="24.791384"
       id="text790"><tspan
         sodipodi:role="line"
         id="tspan788"
         style="font-style:normal;font-variant:normal;font-weight:normal;font-stretch:normal;font-size:18.0569px;font-family:P052;-inkscape-font-specification:'P052, Normal';font-variant-ligatures:normal;font-variant-caps:normal;font-variant-numeric:normal;font-variant-east-asian:normal;fill:#006680;stroke-width:1.50474"
         x="13.128304"
         y="24.791384">Cata ogue</tspan></text>
  </g>
</svg>
